<svg id="Layer_1" data-name="Layer 1" xmlns="http://www.w3.org/2000/svg" viewBox="0 0 806 416"><title>architecture-diagram-h</title><g style="opacity:0.8"><path d="M26.78,187.9a0.41,0.41,0,0,1,.41-0.41h5c2.58,0,4.58,1.74,4.58,4A4.13,4.13,0,0,1,34.36,195a3.9,3.9,0,0,1,2.82,3.54c0,2.43-2.08,4.19-4.73,4.19H27.2a0.41,0.41,0,0,1-.41-0.41V187.9Zm5.12,6a1.86,1.86,0,0,0,1.87-2,1.77,1.77,0,0,0-1.87-1.85H29.58v3.8h2.32Zm0.3,6.25a1.94,1.94,0,0,0,2-2A2.1,2.1,0,0,0,32,196.26H29.58v3.86h2.63Z" style="fill:#686868"/><path d="M38.21,202.12L45,187.51a0.39,0.39,0,0,1,.37-0.24h0.22a0.37,0.37,0,0,1,.37.24l6.69,14.61a0.38,0.38,0,0,1-.37.56H50.34a0.62,0.62,0,0,1-.63-0.43l-1.06-2.34H42.16l-1.06,2.34a0.65,0.65,0,0,1-.63.43H38.57A0.38,0.38,0,0,1,38.21,202.12Zm9.38-4.62-2.17-4.78H45.35l-2.13,4.78h4.36Z" style="fill:#686868"/><path d="M61.2,187.27a7.35,7.35,0,0,1,5.25,2,0.4,0.4,0,0,1,0,.61l-1.32,1.37a0.35,0.35,0,0,1-.54,0A5.14,5.14,0,0,0,61.27,190a5,5,0,0,0,0,10.07,5.21,5.21,0,0,0,3.32-1.24,0.4,0.4,0,0,1,.54,0l1.35,1.39a0.41,0.41,0,0,1,0,.59,7.45,7.45,0,0,1-5.28,2.11A7.82,7.82,0,1,1,61.2,187.27Z" style="fill:#686868"/><path d="M69.32,188a0.51,0.51,0,0,1,.52-0.52h1.91a0.53,0.53,0,0,1,.52.52v5.86l5.47-6.17a0.52,0.52,0,0,1,.41-0.22h2.17a0.46,0.46,0,0,1,.35.78L75,194.65l6.08,7.27a0.48,0.48,0,0,1-.39.76H78.33a0.47,0.47,0,0,1-.39-0.15l-5.67-7v6.62a0.53,0.53,0,0,1-.52.52H69.84a0.51,0.51,0,0,1-.52-0.52V188Z" style="fill:#686868"/><path d="M32.37,214a0.41,0.41,0,0,1,.41-0.41h8.84A0.41,0.41,0,0,1,42,214v1.78a0.41,0.41,0,0,1-.41.41H35.2v3.56h5.36a0.43,0.43,0,0,1,.41.41v1.8a0.41,0.41,0,0,1-.41.41H35.2v3.8h6.43a0.41,0.41,0,0,1,.41.41v1.78a0.41,0.41,0,0,1-.41.41H32.79a0.41,0.41,0,0,1-.41-0.41V214Z" style="fill:#686868"/><path d="M45.14,213.72a0.41,0.41,0,0,1,.41-0.39H46.1l9,9.6h0v-9a0.41,0.41,0,0,1,.41-0.41h2A0.43,0.43,0,0,1,58,214v14.61a0.41,0.41,0,0,1-.41.39H57L48,219h0v9.34a0.41,0.41,0,0,1-.41.41h-2a0.43,0.43,0,0,1-.41-0.41V213.72Z" style="fill:#686868"/><path d="M61.93,214a0.41,0.41,0,0,1,.39-0.41h5.15a7.6,7.6,0,1,1,0,15.2H62.32a0.41,0.41,0,0,1-.39-0.41V214Zm5.28,12.14a5,5,0,0,0,0-9.92H64.73v9.92H67.2Z" style="fill:#686868"/></g><g style="opacity:0.8"><line x1="101.19" y1="97.27" x2="101.19" y2="313.33" style="fill:#fff"/><line x1="101.19" y1="97.27" x2="101.19" y2="103.27" style="fill:none;stroke:#686868;stroke-linecap:square;stroke-miterlimit:10;stroke-width:3px"/><line x1="101.19" y1="115.28" x2="101.19" y2="301.33" style="fill:none;stroke:#686868;stroke-linecap:square;stroke-miterlimit:10;stroke-width:3px;stroke-dasharray:12.003377914428711,12.003377914428711"/><line x1="101.19" y1="307.33" x2="101.19" y2="313.33" style="fill:none;stroke:#686868;stroke-linecap:square;stroke-miterlimit:10;stroke-width:3px"/></g><g style="opacity:0.8"><line x1="704.82" y1="97.27" x2="704.82" y2="313.33" style="fill:#fff"/><line x1="704.82" y1="97.27" x2="704.82" y2="103.27" style="fill:none;stroke:#686868;stroke-linecap:square;stroke-miterlimit:10;stroke-width:3px"/><line x1="704.82" y1="115.28" x2="704.82" y2="301.33" style="fill:none;stroke:#686868;stroke-linecap:square;stroke-miterlimit:10;stroke-width:3px;stroke-dasharray:12.003377914428711,12.003377914428711"/><line x1="704.82" y1="307.33" x2="704.82" y2="313.33" style="fill:none;stroke:#686868;stroke-linecap:square;stroke-miterlimit:10;stroke-width:3px"/></g><g style="opacity:0.8"><path d="M724.81,200.55a0.44,0.44,0,0,1,.43-0.43h2.14a0.43,0.43,0,0,1,.43.43v9.2a3.28,3.28,0,1,0,6.55,0v-9.22a0.43,0.43,0,0,1,.43-0.43h2.14a0.44,0.44,0,0,1,.43.43v9.36a6.27,6.27,0,0,1-12.53,0v-9.36Z" style="fill:#686868"/><path d="M740.28,213.67l0.81-1.4a0.52,0.52,0,0,1,.77-0.16,7.44,7.44,0,0,0,3.4,1.39,1.88,1.88,0,0,0,2-1.73c0-1.15-1-1.94-2.86-2.7-2.12-.86-4.23-2.21-4.23-4.86,0-2,1.48-4.32,5.06-4.32a7.91,7.91,0,0,1,4.5,1.51,0.56,0.56,0,0,1,.14.74l-0.85,1.28a0.59,0.59,0,0,1-.79.27,7.41,7.41,0,0,0-3.13-1.24,1.79,1.79,0,0,0-2,1.57c0,1.06.83,1.78,2.65,2.52,2.18,0.88,4.7,2.18,4.7,5.08,0,2.32-2,4.45-5.17,4.45a7.24,7.24,0,0,1-4.95-1.75A0.44,0.44,0,0,1,740.28,213.67Z" style="fill:#686868"/><path d="M753.4,200.55a0.43,0.43,0,0,1,.43-0.43H763a0.43,0.43,0,0,1,.43.43v1.85a0.43,0.43,0,0,1-.43.43h-6.66v3.69h5.56a0.44,0.44,0,0,1,.43.43v1.87a0.43,0.43,0,0,1-.43.43h-5.56v3.94H763a0.43,0.43,0,0,1,.43.43v1.85a0.43,0.43,0,0,1-.43.43h-9.16a0.43,0.43,0,0,1-.43-0.43V200.55Z" style="fill:#686868"/><path d="M766.62,200.55a0.43,0.43,0,0,1,.43-0.43h6.43a4.87,4.87,0,0,1,4.9,4.84,5,5,0,0,1-3.33,4.54l3.08,5.71a0.43,0.43,0,0,1-.38.65h-2.36a0.38,0.38,0,0,1-.36-0.2l-3-6h-2.5v5.74a0.44,0.44,0,0,1-.43.43H767a0.43,0.43,0,0,1-.43-0.43V200.55Zm6.61,6.75a2.29,2.29,0,0,0,2.23-2.29,2.24,2.24,0,0,0-2.23-2.18h-3.67v4.48h3.67Z" style="fill:#686868"/></g><path d="M179.84,200.93a0.42,0.42,0,0,1,.41-0.41h2a0.41,0.41,0,0,1,.41.41v5.66h7v-5.66a0.41,0.41,0,0,1,.41-0.41h2a0.42,0.42,0,0,1,.41.41v14.14a0.42,0.42,0,0,1-.41.41h-2a0.41,0.41,0,0,1-.41-0.41v-5.9h-7v5.9a0.41,0.41,0,0,1-.41.41h-2a0.42,0.42,0,0,1-.41-0.41V200.93Z" style="fill:#3a3a3a"/><path d="M198.28,203.09H195a0.41,0.41,0,0,1-.41-0.41v-1.75a0.41,0.41,0,0,1,.41-0.41h9.34a0.41,0.41,0,0,1,.41.41v1.75a0.41,0.41,0,0,1-.41.41h-3.27v12a0.42,0.42,0,0,1-.41.41h-2a0.42,0.42,0,0,1-.41-0.41v-12Z" style="fill:#3a3a3a"/><path d="M209.26,203.09H206a0.41,0.41,0,0,1-.41-0.41v-1.75a0.41,0.41,0,0,1,.41-0.41h9.34a0.41,0.41,0,0,1,.41.41v1.75a0.41,0.41,0,0,1-.41.41h-3.27v12a0.42,0.42,0,0,1-.41.41h-2a0.42,0.42,0,0,1-.41-0.41v-12Z" style="fill:#3a3a3a"/><path d="M218,200.93a0.41,0.41,0,0,1,.41-0.41h5a4.76,4.76,0,1,1,0,9.53h-2.67v5a0.42,0.42,0,0,1-.41.41h-2a0.41,0.41,0,0,1-.41-0.41V200.93Zm5.26,6.52a2.2,2.2,0,0,0,2.2-2.22,2.13,2.13,0,0,0-2.2-2.07h-2.48v4.29h2.48Z" style="fill:#3a3a3a"/><path d="M234.67,200.93a0.42,0.42,0,0,1,.41-0.41h1.79a0.42,0.42,0,0,1,.41.41v14.14a0.42,0.42,0,0,1-.41.41h-1.79a0.42,0.42,0,0,1-.41-0.41V200.93Z" style="fill:#3a3a3a"/><path d="M239.65,202.43A1.46,1.46,0,0,1,241.1,201a1.47,1.47,0,1,1,0,2.95A1.46,1.46,0,0,1,239.65,202.43Zm0.19,4.91a0.41,0.41,0,0,1,.41-0.41H242a0.41,0.41,0,0,1,.41.41v7.73a0.42,0.42,0,0,1-.41.41h-1.77a0.42,0.42,0,0,1-.41-0.41v-7.73Z" style="fill:#3a3a3a"/><path d="M245,200.93a0.42,0.42,0,0,1,.41-0.41h1.82a0.42,0.42,0,0,1,.41.41v6.17a5.14,5.14,0,0,1,1.9-.38,4.22,4.22,0,0,1,4.23,4.49,4.28,4.28,0,0,1-4.1,4.49,3.75,3.75,0,0,1-2.8-1.28l-0.21.66a0.47,0.47,0,0,1-.41.41h-0.83a0.42,0.42,0,0,1-.41-0.41V200.93Zm4.34,12.46a2,2,0,0,0,1.94-2.18A2.1,2.1,0,0,0,249.2,209a2.77,2.77,0,0,0-1.67.49V212A1.86,1.86,0,0,0,249.32,213.39Z" style="fill:#3a3a3a"/><path d="M552,200.93a0.42,0.42,0,0,1,.41-0.41h2a0.41,0.41,0,0,1,.41.41v8.74a3.11,3.11,0,1,0,6.22,0v-8.76a0.41,0.41,0,0,1,.41-0.41h2a0.42,0.42,0,0,1,.41.41v8.89a6,6,0,0,1-11.9,0v-8.89Z" style="fill:#3a3a3a"/><path d="M567.62,200.93a0.42,0.42,0,0,1,.41-0.41h2a0.42,0.42,0,0,1,.41.41v14.14a0.42,0.42,0,0,1-.41.41h-2a0.42,0.42,0,0,1-.41-0.41V200.93Z" style="fill:#3a3a3a"/><path d="M578.37,200.93a0.42,0.42,0,0,1,.41-0.41h1.79a0.42,0.42,0,0,1,.41.41v14.14a0.42,0.42,0,0,1-.41.41h-1.79a0.42,0.42,0,0,1-.41-0.41V200.93Z" style="fill:#3a3a3a"/><path d="M586.34,210.08a5.49,5.49,0,0,1,1.56.24c0-1.09-.32-1.47-1.11-1.47a10.24,10.24,0,0,0-2.39.32,0.38,0.38,0,0,1-.49-0.39l-0.19-1.11a0.42,0.42,0,0,1,.3-0.53,11.41,11.41,0,0,1,2.91-.41c2.67,0,3.29,1.39,3.29,3.72v4.64a0.42,0.42,0,0,1-.41.41H589a0.38,0.38,0,0,1-.36-0.3l-0.26-.58a3.67,3.67,0,0,1-2.61,1.09,2.73,2.73,0,0,1-2.88-2.93C582.92,211.25,584.16,210.08,586.34,210.08Zm0,3.8a2,2,0,0,0,1.47-.83v-1.18a3.35,3.35,0,0,0-1.2-.26,1.22,1.22,0,0,0-1.39,1.15A1.07,1.07,0,0,0,586.38,213.88Z" style="fill:#3a3a3a"/><path d="M591.55,207.49a0.38,0.38,0,0,1,.36-0.56h1.92a0.39,0.39,0,0,1,.36.24l2.16,4.83h0l2.14-4.83a0.46,0.46,0,0,1,.51-0.24h1.71a0.37,0.37,0,0,1,.36.56l-6.54,14.14a0.43,0.43,0,0,1-.36.26h-1.84a0.38,0.38,0,0,1-.36-0.58l3-6.43Z" style="fill:#3a3a3a"/><path d="M606.27,206.72a3.92,3.92,0,0,1,4,4,5.22,5.22,0,0,1,0,.58,0.41,0.41,0,0,1-.41.36h-5.47a2,2,0,0,0,2.05,1.86,3,3,0,0,0,1.67-.53,0.4,0.4,0,0,1,.56,0l0.88,1a0.35,0.35,0,0,1,0,.55,4.6,4.6,0,0,1-3.18,1.18A4.49,4.49,0,0,1,606.27,206.72Zm1.5,3.42a1.59,1.59,0,0,0-1.56-1.45,1.68,1.68,0,0,0-1.67,1.45h3.23Z" style="fill:#3a3a3a"/><path d="M612.06,207.34a0.41,0.41,0,0,1,.41-0.41h0.81a0.39,0.39,0,0,1,.38.28L614,208a3,3,0,0,1,2.41-1.32c1,0,1.9.32,1.65,0.85L617.23,209a0.38,0.38,0,0,1-.49.19,2.3,2.3,0,0,0-.62-0.13,1.73,1.73,0,0,0-1.52.88v5.17a0.4,0.4,0,0,1-.49.41h-1.64a0.42,0.42,0,0,1-.41-0.41v-7.73Z" style="fill:#3a3a3a"/><line x1="117.99" y1="208" x2="159.51" y2="208" style="fill:#fff"/><line x1="124.45" y1="208" x2="153.05" y2="208" style="fill:none;stroke:#11a085;stroke-linecap:square;stroke-miterlimit:10;stroke-width:3px"/><polygon points="125.76 212.49 117.99 208 125.76 203.51 125.76 212.49" style="fill:#11a085"/><polygon points="151.73 212.49 159.5 208 151.73 203.51 151.73 212.49" style="fill:#11a085"/><line x1="638.07" y1="208" x2="679.58" y2="208" style="fill:#fff"/><line x1="644.53" y1="208" x2="673.13" y2="208" style="fill:none;stroke:#11a085;stroke-linecap:square;stroke-miterlimit:10;stroke-width:3px"/><polygon points="645.84 212.49 638.07 208 645.84 203.51 645.84 212.49" style="fill:#11a085"/><polygon points="671.81 212.49 679.59 208 671.81 203.51 671.81 212.49" style="fill:#11a085"/><path d="M359.91,190.2a0.36,0.36,0,0,1,.36-0.36h4.38a3.75,3.75,0,0,1,4,3.54,3.64,3.64,0,0,1-2.1,3,3.43,3.43,0,0,1,2.48,3.12c0,2.14-1.84,3.69-4.17,3.69h-4.63a0.36,0.36,0,0,1-.36-0.36V190.2Zm4.51,5.26a1.64,1.64,0,0,0,1.64-1.72,1.56,1.56,0,0,0-1.64-1.63h-2v3.35h2Zm0.27,5.51a1.71,1.71,0,0,0,1.72-1.74,1.85,1.85,0,0,0-1.95-1.66h-2.08V201h2.31Z" style="fill:#3a3a3a"/><path d="M371.51,190.2a0.38,0.38,0,0,1,.36-0.36h1.82a0.36,0.36,0,0,1,.36.36V198a2.78,2.78,0,1,0,5.56,0V190.2a0.36,0.36,0,0,1,.36-0.36h1.82a0.38,0.38,0,0,1,.36.36v8a5.32,5.32,0,0,1-10.65,0v-8Z" style="fill:#3a3a3a"/><path d="M384.67,201.35l0.69-1.19A0.44,0.44,0,0,1,386,200a6.32,6.32,0,0,0,2.89,1.19,1.6,1.6,0,0,0,1.74-1.47c0-1-.82-1.65-2.43-2.29-1.8-.73-3.59-1.87-3.59-4.13,0-1.7,1.26-3.67,4.3-3.67a6.72,6.72,0,0,1,3.82,1.28,0.47,0.47,0,0,1,.11.63l-0.73,1.09a0.5,0.5,0,0,1-.67.23,6.3,6.3,0,0,0-2.66-1,1.52,1.52,0,0,0-1.68,1.34c0,0.9.71,1.51,2.26,2.14,1.85,0.74,4,1.85,4,4.32,0,2-1.7,3.79-4.4,3.79a6.15,6.15,0,0,1-4.21-1.49A0.38,0.38,0,0,1,384.67,201.35Z" style="fill:#3a3a3a"/><path d="M395.81,190.2a0.38,0.38,0,0,1,.36-0.36H398a0.38,0.38,0,0,1,.36.36v12.65a0.38,0.38,0,0,1-.36.36h-1.78a0.38,0.38,0,0,1-.36-0.36V190.2Z" style="fill:#3a3a3a"/><path d="M401.8,190a0.36,0.36,0,0,1,.36-0.34h0.48l8,8.45h0V190.2a0.36,0.36,0,0,1,.36-0.36h1.76a0.38,0.38,0,0,1,.36.36v12.86a0.36,0.36,0,0,1-.36.34h-0.46l-8-8.77h0v8.22a0.36,0.36,0,0,1-.36.36h-1.74a0.38,0.38,0,0,1-.36-0.36V190Z" style="fill:#3a3a3a"/><path d="M416.57,190.2a0.36,0.36,0,0,1,.36-0.36h7.78a0.36,0.36,0,0,1,.36.36v1.57a0.36,0.36,0,0,1-.36.36h-5.66v3.13h4.72a0.38,0.38,0,0,1,.36.36v1.59a0.36,0.36,0,0,1-.36.36h-4.72v3.35h5.66a0.36,0.36,0,0,1,.36.36v1.57a0.36,0.36,0,0,1-.36.36h-7.78a0.36,0.36,0,0,1-.36-0.36V190.2Z" style="fill:#3a3a3a"/><path d="M427,201.35l0.69-1.19a0.44,0.44,0,0,1,.65-0.13,6.32,6.32,0,0,0,2.89,1.19,1.6,1.6,0,0,0,1.74-1.47c0-1-.82-1.65-2.43-2.29-1.8-.73-3.59-1.87-3.59-4.13,0-1.7,1.26-3.67,4.3-3.67a6.72,6.72,0,0,1,3.82,1.28,0.47,0.47,0,0,1,.11.63l-0.73,1.09a0.5,0.5,0,0,1-.67.23,6.3,6.3,0,0,0-2.66-1,1.52,1.52,0,0,0-1.68,1.34c0,0.9.71,1.51,2.26,2.14,1.85,0.74,4,1.85,4,4.32,0,2-1.7,3.79-4.4,3.79a6.15,6.15,0,0,1-4.21-1.49A0.38,0.38,0,0,1,427,201.35Z" style="fill:#3a3a3a"/><path d="M437.39,201.35l0.69-1.19a0.44,0.44,0,0,1,.65-0.13,6.32,6.32,0,0,0,2.89,1.19,1.6,1.6,0,0,0,1.74-1.47c0-1-.82-1.65-2.43-2.29-1.8-.73-3.59-1.87-3.59-4.13,0-1.7,1.26-3.67,4.3-3.67a6.72,6.72,0,0,1,3.82,1.28,0.47,0.47,0,0,1,.11.63l-0.73,1.09a0.5,0.5,0,0,1-.67.23,6.3,6.3,0,0,0-2.66-1,1.52,1.52,0,0,0-1.68,1.34c0,0.9.71,1.51,2.26,2.14,1.85,0.74,4,1.85,4,4.32,0,2-1.7,3.79-4.4,3.79a6.15,6.15,0,0,1-4.21-1.49A0.38,0.38,0,0,1,437.39,201.35Z" style="fill:#3a3a3a"/><path d="M375.48,213.14a0.36,0.36,0,0,1,.36-0.36h1.76a0.38,0.38,0,0,1,.36.36v10.72h4.87a0.36,0.36,0,0,1,.36.36v1.57a0.36,0.36,0,0,1-.36.36h-7a0.36,0.36,0,0,1-.36-0.36V213.14Z" style="fill:#3a3a3a"/><path d="M390.91,212.59a6.88,6.88,0,1,1-6.86,6.9A6.87,6.87,0,0,1,390.91,212.59Zm0,11.28a4.4,4.4,0,1,0-4.38-4.38A4.41,4.41,0,0,0,390.91,223.87Z" style="fill:#3a3a3a"/><path d="M406.2,212.59a7.22,7.22,0,0,1,4.66,1.78,0.37,0.37,0,0,1,0,.53l-1.18,1.24a0.33,0.33,0,0,1-.5,0,4.33,4.33,0,0,0-2.89-1.11,4.41,4.41,0,0,0,0,8.81,6,6,0,0,0,2.27-.48v-1.63h-1.53a0.35,0.35,0,0,1-.36-0.34v-1.51a0.35,0.35,0,0,1,.36-0.36h3.67a0.36,0.36,0,0,1,.34.36v4.89a0.37,0.37,0,0,1-.15.31,9.65,9.65,0,0,1-4.74,1.24A6.87,6.87,0,0,1,406.2,212.59Z" style="fill:#3a3a3a"/><path d="M413.91,213.14a0.38,0.38,0,0,1,.36-0.36H416a0.38,0.38,0,0,1,.36.36V225.8a0.38,0.38,0,0,1-.36.36h-1.78a0.38,0.38,0,0,1-.36-0.36V213.14Z" style="fill:#3a3a3a"/><path d="M425.82,212.59a6.47,6.47,0,0,1,4.63,1.78,0.35,0.35,0,0,1,0,.53l-1.17,1.21a0.31,0.31,0,0,1-.48,0,4.52,4.52,0,0,0-2.94-1.13,4.44,4.44,0,0,0,0,8.87,4.59,4.59,0,0,0,2.92-1.09,0.35,0.35,0,0,1,.48,0l1.18,1.22a0.36,0.36,0,0,1,0,.52,6.56,6.56,0,0,1-4.64,1.85A6.88,6.88,0,1,1,425.82,212.59Z" style="fill:#3a3a3a"/><path d="M378,296.51l0.69-1.18a0.44,0.44,0,0,1,.65-0.13,6.33,6.33,0,0,0,2.89,1.18,1.6,1.6,0,0,0,1.74-1.47c0-1-.82-1.64-2.43-2.29-1.8-.73-3.59-1.87-3.59-4.13,0-1.7,1.26-3.67,4.3-3.67a6.72,6.72,0,0,1,3.82,1.28,0.47,0.47,0,0,1,.11.63l-0.73,1.09a0.5,0.5,0,0,1-.67.23,6.29,6.29,0,0,0-2.66-1.05,1.52,1.52,0,0,0-1.68,1.34c0,0.9.71,1.51,2.26,2.14,1.85,0.74,4,1.85,4,4.32,0,2-1.7,3.79-4.4,3.79a6.15,6.15,0,0,1-4.21-1.49A0.38,0.38,0,0,1,378,296.51Z" style="fill:#3a3a3a"/><path d="M391,287.3H388a0.36,0.36,0,0,1-.36-0.36v-1.57A0.36,0.36,0,0,1,388,285h8.35a0.36,0.36,0,0,1,.36.36v1.57a0.36,0.36,0,0,1-.36.36h-2.92V298a0.38,0.38,0,0,1-.36.36h-1.78A0.38,0.38,0,0,1,391,298V287.3Z" style="fill:#3a3a3a"/><path d="M396.28,297.89L402.22,285a0.34,0.34,0,0,1,.32-0.21h0.19a0.32,0.32,0,0,1,.32.21L409,297.89a0.34,0.34,0,0,1-.33.5H407a0.55,0.55,0,0,1-.55-0.38l-0.94-2.06h-5.72L398.82,298a0.58,0.58,0,0,1-.55.38H396.6A0.34,0.34,0,0,1,396.28,297.89Zm8.26-4.07-1.91-4.21h-0.06l-1.87,4.21h3.84Z" style="fill:#3a3a3a"/><path d="M411.78,287.3h-2.92a0.36,0.36,0,0,1-.36-0.36v-1.57a0.36,0.36,0,0,1,.36-0.36h8.35a0.36,0.36,0,0,1,.36.36v1.57a0.36,0.36,0,0,1-.36.36h-2.92V298a0.38,0.38,0,0,1-.36.36h-1.78a0.38,0.38,0,0,1-.36-0.36V287.3Z" style="fill:#3a3a3a"/><path d="M419.56,285.37a0.36,0.36,0,0,1,.36-0.36h7.78a0.36,0.36,0,0,1,.36.36v1.57a0.36,0.36,0,0,1-.36.36H422v3.14h4.72a0.38,0.38,0,0,1,.36.36v1.59a0.36,0.36,0,0,1-.36.36H422v3.35h5.66a0.36,0.36,0,0,1,.36.36V298a0.36,0.36,0,0,1-.36.36h-7.78a0.36,0.36,0,0,1-.36-0.36V285.37Z" style="fill:#3a3a3a"/><path d="M366.71,118a0.36,0.36,0,0,1,.36-0.36h5.47a4.14,4.14,0,0,1,4.17,4.11,4.22,4.22,0,0,1-2.83,3.86l2.62,4.86a0.36,0.36,0,0,1-.33.55h-2a0.33,0.33,0,0,1-.31-0.17l-2.54-5.07h-2.12v4.88a0.38,0.38,0,0,1-.36.36h-1.76a0.36,0.36,0,0,1-.36-0.36V118Zm5.62,5.73a2,2,0,0,0,1.89-1.95,1.9,1.9,0,0,0-1.89-1.85h-3.12v3.8h3.12Z" style="fill:#3a3a3a"/><path d="M385.34,117.42a6.88,6.88,0,1,1-6.86,6.9A6.87,6.87,0,0,1,385.34,117.42Zm0,11.28a4.4,4.4,0,1,0-4.38-4.38A4.41,4.41,0,0,0,385.34,128.7Z" style="fill:#3a3a3a"/><path d="M394.54,118a0.38,0.38,0,0,1,.36-0.36h1.82a0.36,0.36,0,0,1,.36.36v7.82a2.78,2.78,0,1,0,5.56,0V118a0.36,0.36,0,0,1,.36-0.36h1.82a0.38,0.38,0,0,1,.36.36v8a5.32,5.32,0,0,1-10.65,0v-8Z" style="fill:#3a3a3a"/><path d="M410.27,119.91h-2.92a0.36,0.36,0,0,1-.36-0.36V118a0.36,0.36,0,0,1,.36-0.36h8.35a0.36,0.36,0,0,1,.36.36v1.57a0.36,0.36,0,0,1-.36.36h-2.92v10.72a0.38,0.38,0,0,1-.36.36h-1.78a0.38,0.38,0,0,1-.36-0.36V119.91Z" style="fill:#3a3a3a"/><path d="M418.06,118a0.36,0.36,0,0,1,.36-0.36h7.78a0.36,0.36,0,0,1,.36.36v1.57a0.36,0.36,0,0,1-.36.36h-5.66V123h4.72a0.38,0.38,0,0,1,.36.36V125a0.36,0.36,0,0,1-.36.36h-4.72v3.35h5.66a0.36,0.36,0,0,1,.36.36v1.57a0.36,0.36,0,0,1-.36.36h-7.78a0.36,0.36,0,0,1-.36-0.36V118Z" style="fill:#3a3a3a"/><path d="M429.3,118a0.36,0.36,0,0,1,.36-0.36h5.47a4.14,4.14,0,0,1,4.17,4.11,4.22,4.22,0,0,1-2.83,3.86l2.62,4.86a0.36,0.36,0,0,1-.33.55h-2a0.33,0.33,0,0,1-.31-0.17l-2.54-5.07h-2.12v4.88a0.38,0.38,0,0,1-.36.36h-1.76a0.36,0.36,0,0,1-.36-0.36V118Zm5.62,5.73a2,2,0,0,0,1.89-1.95,1.9,1.9,0,0,0-1.89-1.85H431.8v3.8h3.12Z" style="fill:#3a3a3a"/><line x1="509.37" y1="208" x2="532.04" y2="208" style="fill:#fff"/><line x1="509.37" y1="208" x2="525.59" y2="208" style="fill:none;stroke:#11a085;stroke-linecap:square;stroke-miterlimit:10;stroke-width:3px"/><polygon points="524.27 212.49 532.04 208 524.27 203.51 524.27 212.49" style="fill:#11a085"/><line x1="296.63" y1="208" x2="273.96" y2="208" style="fill:#fff"/><line x1="296.63" y1="208" x2="280.41" y2="208" style="fill:none;stroke:#11a085;stroke-linecap:square;stroke-miterlimit:10;stroke-width:3px"/><polygon points="281.73 203.51 273.96 208 281.73 212.49 281.73 203.51" style="fill:#11a085"/><rect x="296.63" y="76.33" width="212.73" height="263.35" style="fill:none;stroke:#11a085;stroke-linecap:square;stroke-miterlimit:10;stroke-width:3px"/></svg>